<?xml version="1.0" encoding="UTF-8"?>
<svg id="Layer_2" data-name="Layer 2" xmlns="http://www.w3.org/2000/svg" xmlns:xlink="http://www.w3.org/1999/xlink" viewBox="0 0 960.25 1163.26">
  <defs>
    <style>
      .cls-1 {
        fill: url(#linear-gradient);
      }

      .cls-2 {
        fill: url(#linear-gradient-8);
      }

      .cls-3 {
        fill: url(#linear-gradient-9);
      }

      .cls-4 {
        fill: url(#linear-gradient-3);
      }

      .cls-5 {
        fill: url(#linear-gradient-4);
      }

      .cls-6 {
        fill: url(#linear-gradient-2);
      }

      .cls-7 {
        fill: url(#linear-gradient-6);
      }

      .cls-8 {
        fill: url(#linear-gradient-7);
      }

      .cls-9 {
        fill: url(#linear-gradient-5);
      }
    </style>
    <linearGradient id="linear-gradient" x1="602.04" y1="1037.53" x2="602.04" y2="766.9" gradientUnits="userSpaceOnUse">
      <stop offset="0" stop-color="#087327"/>
      <stop offset="1" stop-color="#49b42f"/>
    </linearGradient>
    <linearGradient id="linear-gradient-2" x1="108.7" y1="513.96" x2="707.7" y2="513.96" gradientUnits="userSpaceOnUse">
      <stop offset="0" stop-color="#003dc8"/>
      <stop offset="1" stop-color="#5699f3"/>
    </linearGradient>
    <linearGradient id="linear-gradient-3" x1="516.95" y1="1107.42" x2="312.44" y2="685.62" gradientUnits="userSpaceOnUse">
      <stop offset="0" stop-color="#b80494"/>
      <stop offset="1" stop-color="#df01a9"/>
    </linearGradient>
    <linearGradient id="linear-gradient-4" x1="487.52" y1="812.15" x2="483.64" y2="529.03" xlink:href="#linear-gradient-2"/>
    <linearGradient id="linear-gradient-5" x1="534.07" y1="846.66" x2="523.88" y2="314.39" xlink:href="#linear-gradient-2"/>
    <linearGradient id="linear-gradient-6" x1="725.7" y1="811.26" x2="720.29" y2="528.26" xlink:href="#linear-gradient-2"/>
    <linearGradient id="linear-gradient-7" x1="676.46" y1="853.27" x2="706.08" y2="282.82" xlink:href="#linear-gradient-2"/>
    <linearGradient id="linear-gradient-8" x1="651.74" y1="884.48" x2="649.1" y2="160.57" xlink:href="#linear-gradient-2"/>
    <linearGradient id="linear-gradient-9" x1="562.19" y1="860.82" x2="556.92" y2="476.49" xlink:href="#linear-gradient-2"/>
  </defs>
  <g id="Layer_1-2" data-name="Layer 1">
    <g>
      <path class="cls-1" d="M960.25,848.34c0,99.19-160.39,179.58-358.23,179.58s-358.19-80.39-358.19-179.58c0-72.83,86.51-135.53,210.8-163.68-82.87,24.12-138.28,67.98-138.28,118.08,0,76.16,127.89,137.86,285.68,137.86s285.72-61.7,285.72-137.86c0-50.18-55.61-94.11-138.75-118.2,124.56,28.11,211.26,90.9,211.26,163.8Z"/>
      <path class="cls-6" d="M365.45,1027.59s-233.53-54.39-140.12-282.41C318.74,517.16,649.73,195.64,707.7,0,316.34,425.58,69.88,683.8,113.73,877.16c37.45,165.12,251.72,150.42,251.72,150.42Z"/>
      <path class="cls-4" d="M206.84,517.52S-59.3,868.09,137.85,992.88c0,0,81.11,116.02,813.28,95.42-1.02,0-502.71,155.62-820.1,18.43,0,0-340.24-141.88,75.81-589.2Z"/>
      <g>
        <path class="cls-5" d="M512.76,528.63v283.18s-40.96-17.05-42.08-17.05c0-19.34-15.93-248.97-15.93-248.97l58.01-17.16Z"/>
        <polygon class="cls-9" points="553.72 794.76 512.76 811.81 512.76 528.63 545.74 528.63 553.72 794.76"/>
        <polygon class="cls-7" points="749.32 545.78 739.06 795.88 697.01 811.81 700.99 528.63 749.32 545.78"/>
        <polygon class="cls-8" points="700.99 528.63 697.01 811.81 661.75 795.88 675.39 519.52 700.99 528.63"/>
        <path class="cls-2" d="M696.98,443.34c-7.94,45.49-28.41,399.16-28.41,399.16l-61.42,21.62-3.97-450.35s93.8,29.21,93.8,29.57Z"/>
        <path class="cls-3" d="M607.15,864.12s-59.13-18.21-60.29-19.34c0-23.87-37.51-401.45-37.51-401.45l93.83-29.57,3.97,450.35Z"/>
      </g>
    </g>
  </g>
</svg>